<?xml version="1.0" standalone="no"?>
<!DOCTYPE svg PUBLIC "-//W3C//DTD SVG 20010904//EN"
 "http://www.w3.org/TR/2001/REC-SVG-20010904/DTD/svg10.dtd">
<svg version="1.0" xmlns="http://www.w3.org/2000/svg"
 width="288.000000pt" height="288.000000pt" viewBox="0 0 288.000000 288.000000"
 preserveAspectRatio="xMidYMid meet">

<g transform="translate(0.000000,288.000000) scale(0.100000,-0.100000)"
fill="#000000" stroke="none">
<path d="M1691 2453 c-66 -35 -76 -59 -79 -207 l-4 -134 -46 51 c-104 111
-225 164 -402 174 -221 12 -367 -41 -470 -171 -17 -22 -53 -53 -81 -68 -61
-35 -104 -93 -118 -159 -7 -29 -9 -102 -5 -182 5 -121 4 -135 -15 -172 -25
-46 -26 -83 -7 -130 19 -45 52 -65 124 -73 l60 -7 44 -66 44 -66 -69 -96 -68
-96 -70 -268 c-38 -147 -69 -275 -69 -285 0 -9 10 -24 22 -32 20 -14 92 -16
586 -16 378 0 570 3 583 11 32 17 37 47 27 163 -10 124 -27 176 -57 176 -29 0
-34 -15 -18 -62 8 -24 17 -85 21 -135 l7 -93 -76 0 -75 0 0 64 c0 44 -5 67
-15 76 -28 23 -45 -5 -45 -76 l0 -64 -324 0 -324 0 37 143 38 142 84 7 c278
22 306 28 367 75 29 22 39 24 85 18 29 -4 73 -16 99 -27 39 -16 51 -18 63 -8
36 30 -27 69 -146 90 -35 6 -72 19 -81 27 -20 18 -24 43 -8 43 16 0 50 62 50
92 0 21 10 34 44 57 54 38 115 106 146 164 22 42 27 45 73 51 60 7 91 26 113
68 20 38 15 120 -10 146 -9 11 -16 35 -16 58 l0 39 72 -5 73 -5 3 -62 c5 -109
48 -110 130 -3 l53 70 117 0 c141 0 189 17 215 73 25 51 25 581 1 632 -32 69
-36 70 -359 73 -262 2 -293 1 -324 -15z m616 -65 c23 -21 23 -22 23 -307 0
-357 13 -331 -171 -331 -121 0 -129 -1 -157 -25 -16 -13 -40 -40 -53 -59 -30
-45 -39 -45 -39 -1 0 25 -8 44 -25 60 -21 22 -33 25 -98 25 l-74 0 -6 73 c-4
39 -13 95 -22 122 -11 37 -15 98 -15 231 0 168 1 183 21 208 l20 26 287 0
c280 0 286 0 309 -22z m-1046 -118 c126 -24 268 -127 327 -238 45 -85 62 -160
62 -279 0 -100 -1 -103 -23 -103 -20 0 -24 8 -34 61 -13 66 -44 110 -92 127
-14 5 -65 15 -113 21 -47 6 -119 23 -160 37 -147 51 -144 50 -177 26 -48 -35
-73 -29 -141 35 -46 42 -69 56 -91 56 -36 0 -78 -37 -110 -98 -41 -76 2 -106
46 -31 14 23 34 51 45 61 19 18 21 17 74 -34 81 -76 138 -91 191 -49 27 21 28
21 74 3 82 -32 174 -55 263 -66 109 -14 125 -28 140 -125 30 -195 -22 -341
-161 -450 -42 -33 -58 -41 -72 -33 -10 5 -94 9 -188 9 l-170 0 31 50 c25 40
29 55 24 84 -8 44 -47 76 -93 76 -47 0 -67 -13 -103 -65 -17 -25 -35 -45 -40
-45 -12 0 -55 75 -75 130 -19 50 -22 199 -7 266 10 44 1 74 -23 74 -19 0 -26
-13 -33 -68 -7 -46 -8 -47 -44 -50 -35 -3 -37 -1 -43 31 -4 19 -5 86 -3 149 3
105 5 118 31 156 15 24 45 51 70 63 23 12 70 52 105 90 62 67 133 112 205 129
48 12 246 11 308 0z m-641 -732 c0 -29 3 -63 6 -75 6 -21 3 -23 -35 -23 -52 0
-81 27 -81 75 0 22 8 43 20 55 12 12 33 20 55 20 l35 0 0 -52z m1048 36 c17
-12 22 -25 22 -59 0 -49 -24 -75 -69 -75 -23 0 -23 2 -17 46 3 26 6 60 6 75 0
34 22 38 58 13z m-737 -224 c28 -15 24 -40 -16 -96 -70 -98 -55 -108 189 -114
l191 -5 3 -24 c6 -39 -21 -51 -115 -51 -95 0 -103 -6 -103 -87 -1 -86 -40
-113 -164 -113 -71 0 -89 -3 -105 -19 -11 -11 -33 -77 -57 -175 l-38 -156 -98
0 c-54 0 -98 3 -98 6 0 13 132 508 137 518 27 43 219 304 231 314 19 15 19 15
43 2z m324 -382 c17 -40 17 -42 -1 -55 -23 -17 -123 -47 -131 -39 -3 3 0 19 6
37 6 18 11 47 11 65 0 34 0 34 48 34 47 0 49 -1 67 -42z"/>
<path d="M1953 2293 c-10 -16 -26 -34 -35 -41 -21 -15 -24 -52 -6 -70 7 -7 31
-12 55 -12 32 0 43 -4 43 -15 0 -11 -11 -15 -40 -15 l-40 0 0 -64 0 -65 -47
-3 -48 -3 -3 -62 c-2 -48 -7 -62 -19 -65 -15 -3 -15 -5 1 -20 14 -15 36 -18
125 -18 70 0 111 4 119 12 16 16 15 28 -3 28 -9 0 -15 9 -15 25 0 18 5 25 20
25 25 0 26 -17 3 -23 -10 -3 9 -5 42 -5 33 0 52 2 43 5 -34 9 -17 23 27 23
l45 0 0 75 0 75 -55 0 c-54 0 -55 0 -55 30 0 28 -2 30 -40 30 -29 0 -40 4 -40
15 0 11 11 15 43 15 48 0 67 13 67 46 0 20 -56 74 -78 74 -5 0 -15 7 -22 15
-21 25 -67 19 -87 -12z m77 2 c7 -8 21 -15 31 -15 11 0 19 -6 19 -14 0 -7 9
-16 20 -19 26 -7 36 -33 20 -52 -20 -24 -189 -17 -204 8 -9 15 -7 22 12 37 12
10 22 23 22 28 0 17 30 42 49 42 10 0 24 -7 31 -15z m70 -190 c0 -24 -3 -25
-55 -25 l-55 0 0 -35 c0 -31 -3 -35 -25 -35 -24 0 -25 3 -25 60 l0 60 80 0
c79 0 80 0 80 -25z m110 -85 l0 -50 -84 0 c-75 0 -84 2 -89 20 -3 11 -12 20
-21 20 -11 0 -16 9 -16 30 l0 30 105 0 105 0 0 -50z m-180 -80 l0 -60 -95 0
-95 0 0 60 0 60 95 0 95 0 0 -60z m180 10 c0 -6 -35 -10 -85 -10 -50 0 -85 4
-85 10 0 6 35 10 85 10 50 0 85 -4 85 -10z m-90 -30 c0 -5 -7 -10 -15 -10 -8
0 -15 5 -15 10 0 6 7 10 15 10 8 0 15 -4 15 -10z m-122 -57 c-32 -2 -86 -2
-120 0 -35 2 -9 3 57 3 66 0 94 -1 63 -3z"/>
<path d="M944 1597 c-3 -9 -4 -28 -2 -44 2 -20 8 -28 23 -28 17 0 20 7 20 40
0 30 -4 41 -18 43 -9 2 -20 -3 -23 -11z"/>
<path d="M1384 1597 c-3 -9 -4 -28 -2 -44 2 -20 8 -28 23 -28 17 0 20 7 20 40
0 30 -4 41 -18 43 -9 2 -20 -3 -23 -11z"/>
<path d="M1107 1358 c22 -25 76 -33 109 -16 50 24 37 33 -45 33 -75 0 -79 -1
-64 -17z"/>
</g>
</svg>
